<svg width="680" height="680" viewBox="0 0 680 680" fill="none" xmlns="http://www.w3.org/2000/svg">
<rect width="680" height="680" rx="148" fill="url(#paint0_linear_84_16026)"/>
<g filter="url(#filter0_i_84_16026)">
<path d="M280 400V520H160V340C160 355.913 166.321 371.174 177.574 382.426C188.826 393.679 204.087 400 220 400H280Z" fill="url(#paint1_linear_84_16026)"/>
<path d="M280 190V280H190C182.044 280 174.413 276.839 168.787 271.213C163.161 265.587 160 257.956 160 250V160H250C257.956 160 265.587 163.161 271.213 168.787C276.839 174.413 280 182.044 280 190Z" fill="url(#paint2_linear_84_16026)"/>
<path d="M520 460C520 475.913 513.679 491.174 502.426 502.426C491.174 513.679 475.913 520 460 520C444.087 520 428.826 513.679 417.574 502.426C406.321 491.174 400 475.913 400 460V400H340C324.087 400 308.826 393.679 297.574 382.426C286.321 371.174 280 355.913 280 340C280 324.087 286.321 308.826 297.574 297.574C308.826 286.321 324.087 280 340 280H400V220C400 208.133 403.519 196.533 410.112 186.666C416.705 176.799 426.075 169.109 437.039 164.567C448.003 160.026 460.067 158.838 471.705 161.153C483.344 163.468 494.035 169.182 502.426 177.574C510.818 185.965 516.532 196.656 518.847 208.295C521.162 219.933 519.974 231.997 515.433 242.961C510.892 253.925 503.201 263.295 493.334 269.888C483.467 276.481 471.867 280 460 280C444.087 280 428.826 286.321 417.574 297.574C406.321 308.826 400 324.087 400 340C400 355.913 406.321 371.174 417.574 382.426C428.826 393.679 444.087 400 460 400C475.913 400 491.174 406.321 502.426 417.574C513.679 428.826 520 444.087 520 460Z" fill="url(#paint3_linear_84_16026)"/>
</g>
<defs>
<filter id="filter0_i_84_16026" x="160" y="160" width="360" height="364" filterUnits="userSpaceOnUse" color-interpolation-filters="sRGB">
<feFlood flood-opacity="0" result="BackgroundImageFix"/>
<feBlend mode="normal" in="SourceGraphic" in2="BackgroundImageFix" result="shape"/>
<feColorMatrix in="SourceAlpha" type="matrix" values="0 0 0 0 0 0 0 0 0 0 0 0 0 0 0 0 0 0 127 0" result="hardAlpha"/>
<feOffset dy="4"/>
<feGaussianBlur stdDeviation="7"/>
<feComposite in2="hardAlpha" operator="arithmetic" k2="-1" k3="1"/>
<feColorMatrix type="matrix" values="0 0 0 0 0 0 0 0 0 0 0 0 0 0 0 0 0 0 0.21 0"/>
<feBlend mode="normal" in2="shape" result="effect1_innerShadow_84_16026"/>
</filter>
<linearGradient id="paint0_linear_84_16026" x1="340" y1="0" x2="340" y2="680" gradientUnits="userSpaceOnUse">
<stop stop-color="#1C3F3A"/>
<stop offset="1" stop-color="#15302C"/>
</linearGradient>
<linearGradient id="paint1_linear_84_16026" x1="130" y1="370" x2="280" y2="520" gradientUnits="userSpaceOnUse">
<stop stop-color="#EFDED1"/>
<stop offset="1" stop-color="#D0CAA9"/>
</linearGradient>
<linearGradient id="paint2_linear_84_16026" x1="160" y1="160" x2="280" y2="280" gradientUnits="userSpaceOnUse">
<stop stop-color="#E7D9C7"/>
<stop offset="1" stop-color="#DDD2BA"/>
</linearGradient>
<linearGradient id="paint3_linear_84_16026" x1="357.57" y1="237.57" x2="520" y2="520" gradientUnits="userSpaceOnUse">
<stop stop-color="#F1DED4"/>
<stop offset="1" stop-color="#D5CDAF"/>
</linearGradient>
</defs>
</svg>
